<svg width="29" height="28" viewBox="0 0 29 28" fill="none" xmlns="http://www.w3.org/2000/svg">
<path d="M24.2956 11.5019C26.1479 11.5019 27.3756 11.6958 27.9787 12.0835C28.5818 12.4281 28.8833 13.2035 28.8833 14.4096C28.8833 15.3573 28.431 16.0465 27.5264 16.4773C26.6218 16.9081 25.5664 17.1235 24.3602 17.1235L22.2279 17.1881C20.7633 17.2742 19.6864 17.3173 18.9972 17.3173C18.3941 17.3173 18.0064 17.2958 17.8341 17.2527C17.7479 17.5542 17.7049 18.0496 17.7049 18.7388C17.6618 19.3419 17.7264 20.2896 17.8987 21.5819C17.9418 21.8404 17.9849 22.2065 18.0279 22.6804C18.071 23.1542 18.0926 23.585 18.0926 23.9727C18.0926 25.2219 17.8556 26.1696 17.3818 26.8158C16.9079 27.4188 16.1325 27.7204 15.0556 27.7204C14.4095 27.7204 13.7633 27.4835 13.1172 27.0096C12.5141 26.4927 12.2125 25.9327 12.2125 25.3296C12.2125 21.9265 12.1264 19.2127 11.9541 17.1881C10.791 17.0588 10.0587 16.9942 9.75716 16.9942C8.72332 16.9942 7.71101 17.0588 6.72024 17.1881C5.42793 17.2742 4.50178 17.3173 3.94178 17.3173C2.82178 17.2742 1.87409 17.0588 1.0987 16.6711C0.366395 16.2404 0.000240899 15.5942 0.000240899 14.7327C0.000240899 13.785 0.194087 13.1173 0.581779 12.7296C1.22793 12.0404 2.4987 11.6958 4.39409 11.6958C5.38486 11.6958 6.48332 11.6527 7.68947 11.5665C8.72332 11.4804 9.43409 11.4373 9.82178 11.4373C10.2095 11.4373 10.5756 11.4804 10.9202 11.5665C11.2649 11.6096 11.5879 11.6311 11.8895 11.6311C11.9756 11.2435 12.0187 10.6188 12.0187 9.7573C12.0187 9.02499 11.9756 7.96961 11.8895 6.59115C11.8033 5.29884 11.7602 4.35115 11.7602 3.74807C11.7602 2.45576 11.9325 1.50807 12.2772 0.904991C12.6649 0.301914 13.4187 0.000376038 14.5387 0.000376038C15.5295 0.000376038 16.2833 0.21576 16.8002 0.646529C17.3172 1.03422 17.5756 1.59422 17.5756 2.32653C17.6187 3.23115 17.5972 4.54499 17.511 6.26807L17.4464 9.17576C17.4464 10.2096 17.4679 10.985 17.511 11.5019C18.5449 11.5881 19.2987 11.6311 19.7725 11.6311C20.7633 11.6311 21.4956 11.6096 21.9695 11.5665L24.2956 11.5019Z" fill="#F7F1DE"/>
</svg>
