<svg width="23" height="24" viewBox="0 0 23 24" fill="none" xmlns="http://www.w3.org/2000/svg">
<path d="M0.366116 14.8839C-0.122038 14.3957 -0.122038 13.6043 0.366116 13.1161L8.32107 5.16117C8.80922 4.67301 9.60068 4.67301 10.0888 5.16117C10.577 5.64932 10.577 6.44078 10.0888 6.92893L3.01777 14L10.0888 21.0711C10.577 21.5592 10.577 22.3507 10.0888 22.8388C9.60068 23.327 8.80922 23.327 8.32107 22.8388L0.366116 14.8839ZM21.75 0L23 0V9H21.75H20.5V0L21.75 0ZM16.75 14V15.25H1.25V14V12.75H16.75V14ZM21.75 9H23C23 12.4518 20.2018 15.25 16.75 15.25V14V12.75C18.8211 12.75 20.5 11.0711 20.5 9H21.75Z" fill="#F7F1DE"/>
</svg>
