<svg width="65" height="65" viewBox="0 0 65 65" fill="none" xmlns="http://www.w3.org/2000/svg">
<path d="M32.5 0C50.4493 0 65 14.5507 65 32.5C65 50.4493 50.4493 65 32.5 65C14.5507 65 0 50.4493 0 32.5C0 14.5507 14.5507 0 32.5 0ZM32.5 4.5498C17.0636 4.5498 4.5498 17.0636 4.5498 32.5C4.5498 47.9364 17.0636 60.4502 32.5 60.4502C47.9364 60.4502 60.4502 47.9364 60.4502 32.5C60.4502 17.0636 47.9364 4.5498 32.5 4.5498ZM33.5879 31.4121H52.2402V33.5879H31.4121V11.0498H33.5879V31.4121Z" fill="black"/>
</svg>
