<svg width="25" height="29" viewBox="0 0 25 29" fill="none" xmlns="http://www.w3.org/2000/svg">
<g opacity="0.5">
<path d="M17.9159 7.808C18.2359 7.808 18.4759 7.912 18.6359 8.12C18.8119 8.312 18.8999 8.576 18.8999 8.912C18.8999 9.28 18.8039 9.696 18.6119 10.16C18.0519 10.672 17.4199 11.352 16.7159 12.2C16.0119 13.048 15.1799 14.104 14.2199 15.368C15.0999 16.808 15.8119 17.896 16.3559 18.632C16.8999 19.352 17.4199 19.848 17.9159 20.12C18.1239 20.232 18.3719 20.328 18.6599 20.408C19.0279 20.52 19.2999 20.632 19.4759 20.744C19.6519 20.856 19.7399 21.024 19.7399 21.248C19.7399 21.696 19.5319 22.032 19.1159 22.256C18.6999 22.464 18.1959 22.568 17.6039 22.568C16.8359 22.568 16.0759 22.144 15.3239 21.296C14.5879 20.448 13.6999 19.184 12.6599 17.504C11.6519 18.832 10.8119 19.912 10.1399 20.744C9.46794 21.56 8.85994 22.224 8.31594 22.736C8.20394 22.832 8.04394 22.912 7.83594 22.976C7.62794 23.024 7.45194 23.048 7.30794 23.048C6.95594 23.048 6.65194 22.904 6.39594 22.616C6.15594 22.328 6.02794 22.032 6.01194 21.728C6.01194 21.68 6.09994 21.52 6.27594 21.248C6.45194 20.976 6.72394 20.664 7.09194 20.312C7.49194 20.008 8.01194 19.464 8.65194 18.68C9.30794 17.896 10.1879 16.784 11.2919 15.344L10.5959 14.24C9.98794 13.28 9.53994 12.592 9.25194 12.176C8.96394 11.76 8.69194 11.448 8.43594 11.24C8.17994 11.016 7.90794 10.904 7.61994 10.904C7.52394 10.904 7.37194 10.936 7.16394 11C6.97194 11.048 6.81194 11.072 6.68394 11.072C6.50794 11.072 6.34794 11.04 6.20394 10.976C5.80394 10.8 5.60394 10.536 5.60394 10.184C5.60394 10.024 5.63594 9.888 5.69994 9.776C5.82794 9.488 6.09194 9.224 6.49194 8.984C6.90794 8.728 7.46794 8.6 8.17194 8.6C8.82794 8.6 9.39594 8.768 9.87594 9.104C10.3559 9.44 10.7959 9.896 11.1959 10.472C11.6119 11.048 12.1799 11.952 12.8999 13.184C14.4839 11.04 15.6039 9.6 16.2599 8.864C16.6439 8.416 16.9479 8.128 17.1719 8C17.3959 7.872 17.6439 7.808 17.9159 7.808Z" fill="black"/>
</g>
</svg>
