<svg width="303" height="216" viewBox="0 0 303 216" fill="none" xmlns="http://www.w3.org/2000/svg">
<path d="M93.4296 199.474L22.4136 128.804C10.1074 116.558 10.2564 96.5938 22.7439 84.5327L93.49 16.2023C99.2697 10.62 106.991 7.5 115.026 7.5H264.5C281.621 7.5 295.5 21.3792 295.5 38.5V177.5C295.5 194.621 281.621 208.5 264.5 208.5H115.296C107.101 208.5 99.2388 205.255 93.4296 199.474Z" stroke="black" stroke-width="15"/>
<path d="M139.345 47.7121L169.97 97.1297H170.898L201.523 47.7121H218.459L181.106 107.106L218.459 166.5H201.523L170.898 118.01H169.97L139.345 166.5H122.408L160.689 107.106L122.408 47.7121H139.345Z" fill="black"/>
</svg>
