<svg width="211" height="133" viewBox="0 0 211 133" fill="none" xmlns="http://www.w3.org/2000/svg">
<path d="M210.487 133H86.2706L85.7179 132.989C82.9706 132.881 80.4297 131.969 78.3233 130.483C72.9897 128.822 66.2573 124.03 56.5274 116.714L52.17 113.426L18.7374 88.1582C6.8088 79.1425 0.751269 74.5638 0.0762751 68.5605L0.0479548 68.2734C0.00029287 67.7014 -0.0120226 67.1269 0.011822 66.5537L0.0479548 65.9814C0.496012 60.6037 5.19099 56.4253 14.4757 49.3291L18.7374 46.0967L52.17 20.8291C62.7607 12.8246 70.1424 7.24518 75.9015 4.69238C78.3517 1.90555 81.9079 0.114287 85.8839 0.00488281L86.2706 0H210.487V133ZM86.2706 5.64648C83.8297 5.64655 81.6444 6.71173 80.1417 8.4209L79.3233 9.35156L78.1896 9.85449C73.1821 12.0741 66.441 17.1209 55.5743 25.334L22.1417 50.6016C15.9532 55.2788 11.773 58.4531 9.00987 61.1846C6.324 63.8396 5.76837 65.3287 5.67491 66.4502C5.63736 66.9008 5.63737 67.3541 5.67491 67.8047C5.7684 68.9262 6.32404 70.4153 9.00987 73.0703C11.773 75.8018 15.9532 78.976 22.1417 83.6533L55.5743 108.921C61.6847 113.539 66.5659 117.226 70.6749 120.005C74.578 122.644 77.4066 124.198 79.5773 124.952L80.0021 125.093L80.8517 125.357L81.5782 125.87C82.9041 126.805 84.5151 127.353 86.2706 127.354H204.841V5.64648H86.2706ZM116.567 27.7852C118.871 27.7852 120.414 28.3406 121.195 29.4512L138.779 55.9199L156.858 29.3896C157.228 28.8549 157.845 28.4636 158.709 28.2168C159.573 27.9289 160.539 27.7852 161.609 27.7852H162.226C164.036 27.7852 165.332 27.9493 166.113 28.2783C166.895 28.5663 167.285 29.0402 167.285 29.6982C167.285 29.9449 167.182 30.2531 166.977 30.623C166.812 30.952 166.628 31.3018 166.422 31.6719L144.456 64.25L169.198 101.208C169.774 102.031 170.062 102.689 170.062 103.183C170.062 103.8 169.671 104.272 168.89 104.602C168.108 104.889 166.812 105.034 165.002 105.034H163.213C161.979 105.034 160.991 104.931 160.251 104.726C159.511 104.479 158.935 104.026 158.524 103.368L138.348 73.2578L117.925 103.491C117.308 104.519 115.724 105.034 113.174 105.034H112.372C110.563 105.034 109.267 104.889 108.485 104.602C107.704 104.314 107.313 103.841 107.313 103.183C107.313 102.689 107.601 102.031 108.177 101.208L132.734 64.8057L110.768 31.6719C110.192 30.8085 109.905 30.1506 109.904 29.6982C109.904 28.4231 111.591 27.7852 114.964 27.7852H116.567Z" fill="black"/>
</svg>
