<svg width="38" height="65" viewBox="0 0 38 65" fill="none" xmlns="http://www.w3.org/2000/svg">
<path d="M21.4021 65L37.4998 59.4238H5.30444L21.4021 65ZM22.7214 0C22.0591 0 21.5222 0.536908 21.5222 1.19922V56.3633C21.5222 57.0256 22.0591 57.5625 22.7214 57.5625C23.3837 57.5624 23.9207 57.0255 23.9207 56.3633V1.19922C23.9207 0.536954 23.3837 7.2473e-05 22.7214 0ZM20.4714 5.06055C20.4711 1.98149 17.0157 0.166879 14.4802 1.91406L1.65308 10.7529C-0.550951 12.272 -0.550904 15.5278 1.65308 17.0469L14.4802 25.8857C17.0157 27.633 20.4712 25.8184 20.4714 22.7393V5.06055Z" fill="black"/>
</svg>
