<svg width="70" height="70" viewBox="0 0 70 70" fill="none" xmlns="http://www.w3.org/2000/svg">
<g clip-path="url(#clip0_69_228)">
<path d="M26.2502 55.417C11.6668 59.792 11.6668 48.1253 5.8335 46.667M46.6668 64.167V52.8795C46.7762 51.4887 46.5883 50.0906 46.1156 48.7781C45.6429 47.4655 44.8962 46.2687 43.9252 45.267C53.0835 44.2462 62.7085 40.7753 62.7085 24.8503C62.7077 20.7782 61.1413 16.8622 58.3335 13.9128C59.6631 10.3502 59.5691 6.4122 58.071 2.91701C58.071 2.91701 54.6293 1.89618 46.6668 7.23368C39.9819 5.42191 32.9351 5.42191 26.2502 7.23368C18.2877 1.89618 14.846 2.91701 14.846 2.91701C13.3479 6.4122 13.2539 10.3502 14.5835 13.9128C11.7547 16.8841 10.1867 20.8354 10.2085 24.9378C10.2085 40.7462 19.8335 44.217 28.9918 45.3545C28.0322 46.3461 27.2922 47.5286 26.8198 48.8251C26.3474 50.1216 26.1534 51.503 26.2502 52.8795V64.167" stroke="#1E1E1E" stroke-width="6.125" stroke-linecap="round" stroke-linejoin="round"/>
</g>
<defs>
<clipPath id="clip0_69_228">
<rect width="70" height="70" fill="white"/>
</clipPath>
</defs>
</svg>
