<svg width="23" height="32" viewBox="0 0 23 32" fill="none" xmlns="http://www.w3.org/2000/svg">
<path d="M11.5 20.2105C10.131 20.2105 8.96726 19.7193 8.00893 18.7368C7.0506 17.7544 6.57143 16.5614 6.57143 15.1579V5.05263C6.57143 3.64912 7.0506 2.45614 8.00893 1.47368C8.96726 0.491228 10.131 0 11.5 0C12.869 0 14.0327 0.491228 14.9911 1.47368C15.9494 2.45614 16.4286 3.64912 16.4286 5.05263V15.1579C16.4286 16.5614 15.9494 17.7544 14.9911 18.7368C14.0327 19.7193 12.869 20.2105 11.5 20.2105ZM9.85714 32V26.8211C7.00952 26.4281 4.65476 25.1228 2.79286 22.9053C0.930952 20.6877 0 18.1053 0 15.1579H3.28571C3.28571 17.4877 4.08661 19.4737 5.68839 21.1158C7.29018 22.7579 9.22738 23.5789 11.5 23.5789C13.7726 23.5789 15.7098 22.7579 17.3116 21.1158C18.9134 19.4737 19.7143 17.4877 19.7143 15.1579H23C23 18.1053 22.069 20.6877 20.2071 22.9053C18.3452 25.1228 15.9905 26.4281 13.1429 26.8211V32H9.85714Z" fill="#F7F1DE"/>
</svg>
