<svg width="20" height="17" viewBox="0 0 20 17" fill="none" xmlns="http://www.w3.org/2000/svg">
<path d="M18.6867 14.1649C19.4235 14.1763 20.0115 14.7828 20.0002 15.5195C19.9888 16.2568 19.382 16.8452 18.6447 16.8339L1.334 16.5665C0.596787 16.5551 0.00836681 15.9483 0.019692 15.2111C0.031019 14.4737 0.637976 13.8852 1.3753 13.8966L18.6867 14.1649ZM18.6867 7.22346C19.4235 7.23487 20.0115 7.84135 20.0002 8.57811C19.9888 9.31537 19.382 9.90384 18.6447 9.89245L1.334 9.62509C0.596787 9.61371 0.00836681 9.00688 0.019692 8.26966C0.031019 7.53233 0.637976 6.94382 1.3753 6.95524L18.6867 7.22346ZM18.6672 0.26838C19.4039 0.279795 19.992 0.886267 19.9806 1.62303C19.9693 2.36029 19.3624 2.94876 18.6252 2.93738L1.31447 2.67002C0.577255 2.65863 -0.0111644 2.0518 0.000160775 1.31458C0.0114877 0.577253 0.618444 -0.0112604 1.35577 0.00016354L18.6672 0.26838Z" fill="black"/>
</svg>
