<svg width="38" height="38" viewBox="0 0 38 38" fill="none" xmlns="http://www.w3.org/2000/svg">
<path d="M14.4033 0.00488281C21.9904 0.197583 28.082 6.42279 28.082 14.0742L28.0771 14.4375C27.9984 17.5505 26.9102 20.4114 25.1299 22.7061L38.002 34.9307L35.1016 37.999L22.0684 25.6221C19.7933 27.2141 17.0261 28.1484 14.041 28.1484L13.6787 28.1436C6.21202 27.9541 0.194143 21.9218 0.00488281 14.4375L0 14.0742C0 6.30132 6.28645 0 14.041 0L14.4033 0.00488281ZM14.041 4.22266C8.62772 4.22266 4.22266 8.62379 4.22266 14.0742C4.22273 19.5246 8.62777 23.9258 14.041 23.9258C19.4542 23.9257 23.8593 19.5245 23.8594 14.0742C23.8594 8.62383 19.4543 4.22273 14.041 4.22266Z" fill="#F7F1DE"/>
</svg>
