<svg width="39" height="40" viewBox="0 0 39 40" fill="none" xmlns="http://www.w3.org/2000/svg">
<path d="M19.2334 25.3701C26.4271 25.3473 33.3474 29.6127 38.1221 37.7832L35.5322 39.2969C31.1658 31.8248 25.1302 28.3515 19.2432 28.3701C13.3421 28.3889 7.16739 31.9177 2.54688 39.334L1.27344 38.54L0 37.7471C5.0222 29.6861 12.0538 25.393 19.2334 25.3701ZM18.2705 0C24.1386 0.000230894 28.8955 4.75779 28.8955 10.626C28.8953 16.494 24.1385 21.2507 18.2705 21.251C12.4023 21.251 7.64476 16.4941 7.64453 10.626C7.64453 4.75765 12.4022 0 18.2705 0Z" fill="black"/>
</svg>
